<?xml version="1.0" standalone="no"?>
<!DOCTYPE svg PUBLIC "-//W3C//DTD SVG 20010904//EN"
 "http://www.w3.org/TR/2001/REC-SVG-20010904/DTD/svg10.dtd">
<svg version="1.0" xmlns="http://www.w3.org/2000/svg"
 width="300.000000pt" height="300.000000pt" viewBox="0 0 300.000000 300.000000"
 preserveAspectRatio="xMidYMid meet">
<metadata>
Created by potrace 1.10, written by Peter Selinger 2001-2011
</metadata>
<g transform="translate(0.000000,300.000000) scale(0.100000,-0.100000)"
fill="#000000" stroke="none">
<path d="M316 2425 c-136 -48 -170 -218 -63 -312 20 -18 53 -37 74 -42 53 -15
2293 -15 2346 0 21 5 54 24 74 42 85 75 85 199 0 274 -20 18 -53 37 -74 42
-26 7 -412 11 -1178 11 -942 -1 -1147 -3 -1179 -15z"/>
<path d="M316 1675 c-136 -48 -170 -218 -63 -312 20 -18 53 -37 74 -42 53 -15
2293 -15 2346 0 21 5 54 24 74 42 85 75 85 199 0 274 -20 18 -53 37 -74 42
-26 7 -412 11 -1178 11 -942 -1 -1147 -3 -1179 -15z"/>
<path d="M316 925 c-136 -48 -170 -218 -63 -312 20 -18 53 -37 74 -42 53 -15
2293 -15 2346 0 21 5 54 24 74 42 85 75 85 199 0 274 -20 18 -53 37 -74 42
-26 7 -412 11 -1178 11 -942 -1 -1147 -3 -1179 -15z"/>
</g>
</svg>
